<svg xmlns="http://www.w3.org/2000/svg" width="180" height="60" fill="none" viewBox="0 0 180 60">
    <path fill="#D9452D" d="M0 10h180v40H0z"/>
    <path fill="#D9452D" d="M180 10H0l6.814 39.898L164.463 60 180 10z" opacity=".4"/>
    <path fill="#D9452D" d="M12.07 0L170.59 8 180 50H0L12.07 0z" opacity=".4"/>
    <path fill="#fff" d="M18.653 35V23.64h4.816c.522 0 1.002.112 1.44.336.448.213.832.501 1.152.864.32.352.57.757.752 1.216.181.448.272.901.272 1.36 0 .48-.086.95-.256 1.408-.17.448-.41.848-.72 1.2s-.683.635-1.12.848a3.24 3.24 0 0 1-1.44.32H20.86V35h-2.208zm2.208-5.744h2.56c.405 0 .741-.165 1.008-.496.277-.33.416-.779.416-1.344 0-.288-.043-.544-.128-.768a1.87 1.87 0 0 0-.336-.592 1.247 1.247 0 0 0-.496-.352 1.302 1.302 0 0 0-.56-.128H20.86v3.68zm11.284 5.904c-.683 0-1.296-.117-1.84-.352a4.283 4.283 0 0 1-1.392-.944 4.36 4.36 0 0 1-.864-1.392 4.518 4.518 0 0 1-.304-1.648c0-.587.101-1.141.304-1.664.203-.523.49-.981.864-1.376a4.163 4.163 0 0 1 1.392-.96c.544-.235 1.157-.352 1.84-.352.682 0 1.29.117 1.824.352a3.994 3.994 0 0 1 1.376.96c.384.395.677.853.88 1.376.203.523.304 1.077.304 1.664a4.52 4.52 0 0 1-.304 1.648c-.203.523-.49.987-.864 1.392-.373.395-.832.71-1.376.944-.544.235-1.157.352-1.84.352zm-2.192-4.336c0 .373.053.715.16 1.024.117.299.272.56.464.784.202.224.437.4.704.528.267.117.555.176.864.176.31 0 .597-.059.864-.176.267-.128.496-.304.688-.528a2.29 2.29 0 0 0 .464-.8c.117-.31.176-.65.176-1.024a2.82 2.82 0 0 0-.176-1.008 2.29 2.29 0 0 0-.464-.8 1.908 1.908 0 0 0-.688-.512 1.97 1.97 0 0 0-.864-.192c-.31 0-.598.064-.864.192a2.261 2.261 0 0 0-.704.528c-.192.224-.347.49-.464.8-.107.31-.16.645-.16 1.008zM43.704 35l-2.432-3.632-1.152 1.136V35h-2.144V23.32h2.144v7.088l3.36-3.776h2.288l-3.12 3.552L45.992 35h-2.288zm5.754.16c-.864 0-1.52-.277-1.968-.832-.448-.555-.672-1.376-.672-2.464v-5.248h2.144V31.4c0 1.29.464 1.936 1.392 1.936.416 0 .816-.123 1.2-.368.395-.256.715-.64.96-1.152v-5.2h2.144v5.92c0 .224.037.384.112.48.085.096.218.15.4.16V35a4.478 4.478 0 0 1-.928.096c-.384 0-.699-.085-.944-.256a1.078 1.078 0 0 1-.416-.736l-.048-.672a3.574 3.574 0 0 1-1.44 1.296 4.333 4.333 0 0 1-1.936.432zm8.93-11.84l1.36 1.008 1.36-1.008 1.105.512-1.697 1.616h-1.551l-1.697-1.616 1.12-.512zm1.569 11.84a6.486 6.486 0 0 1-2.065-.336 5.034 5.034 0 0 1-1.728-.96l.8-1.344c.513.363 1.008.64 1.489.832.49.181.975.272 1.455.272.427 0 .763-.08 1.008-.24a.773.773 0 0 0 .369-.688c0-.299-.144-.517-.432-.656-.288-.139-.758-.299-1.409-.48a18.869 18.869 0 0 1-1.392-.432 3.752 3.752 0 0 1-.928-.464 1.7 1.7 0 0 1-.512-.608 1.996 1.996 0 0 1-.16-.832c0-.427.08-.81.24-1.152.171-.341.406-.63.705-.864a3.152 3.152 0 0 1 1.04-.56 4.335 4.335 0 0 1 1.312-.192c.629 0 1.215.09 1.76.272a4.295 4.295 0 0 1 1.52.88l-.865 1.296a4.965 4.965 0 0 0-1.248-.704 3.326 3.326 0 0 0-1.183-.224c-.363 0-.667.075-.912.224-.246.15-.368.39-.368.72 0 .15.026.272.08.368.063.096.16.181.288.256.128.075.293.15.495.224.214.064.475.133.784.208.576.15 1.067.299 1.472.448.416.15.752.32 1.008.512.267.192.46.416.577.672.128.245.192.544.192.896 0 .821-.304 1.472-.912 1.952-.608.47-1.435.704-2.48.704zm7.073 0a3.3 3.3 0 0 1-1.136-.192 2.915 2.915 0 0 1-.912-.56 2.813 2.813 0 0 1-.608-.848 2.629 2.629 0 0 1-.208-1.056c0-.395.085-.757.256-1.088a2.61 2.61 0 0 1 .736-.864c.32-.235.698-.416 1.136-.544a4.744 4.744 0 0 1 1.44-.208c.373 0 .736.032 1.088.096.362.064.682.155.96.272v-.48c0-.555-.16-.981-.48-1.28-.31-.299-.774-.448-1.392-.448-.448 0-.886.08-1.312.24-.427.16-.864.395-1.312.704l-.656-1.36c1.077-.715 2.24-1.072 3.488-1.072 1.205 0 2.138.299 2.8.896.672.587 1.008 1.44 1.008 2.56v2.608c0 .224.037.384.112.48.085.096.218.15.4.16V35a4.77 4.77 0 0 1-.944.112c-.406 0-.72-.09-.944-.272a1.185 1.185 0 0 1-.4-.72l-.048-.464a3.71 3.71 0 0 1-1.36 1.12 3.905 3.905 0 0 1-1.712.384zm.608-1.568c.362 0 .704-.064 1.024-.192.33-.128.586-.299.768-.512.234-.181.352-.384.352-.608v-.96a4.735 4.735 0 0 0-.832-.224 4.12 4.12 0 0 0-.864-.096c-.555 0-1.008.128-1.36.384-.352.245-.528.56-.528.944 0 .363.138.667.416.912.277.235.618.352 1.024.352zm5.603 4.544c-.405 0-.79-.064-1.152-.192a2.71 2.71 0 0 1-.976-.56l.928-1.456c.118.117.261.203.432.256.17.064.341.096.512.096a.984.984 0 0 0 .72-.304c.203-.192.304-.443.304-.752v-8.608h2.144v8.448c0 .448-.075.859-.224 1.232-.15.384-.357.71-.624.976-.256.277-.565.49-.928.64-.352.15-.73.224-1.136.224zm.768-12.688V23.32h2.144v2.128H74.01zm9.116 9.12c-.288.128-.64.256-1.056.384a4.436 4.436 0 0 1-1.312.192 3.13 3.13 0 0 1-.848-.112 2.005 2.005 0 0 1-.688-.352 1.904 1.904 0 0 1-.464-.64c-.117-.267-.176-.587-.176-.96v-4.816h-1.104v-1.648h1.104v-2.72h2.144v2.72h1.76v1.648h-1.76v4.096c0 .299.075.512.224.64.16.117.352.176.576.176.224 0 .443-.037.656-.112.213-.075.384-.139.512-.192l.432 1.696zm4.802.592c-.673 0-1.28-.112-1.825-.336a4.283 4.283 0 0 1-1.392-.944 4.261 4.261 0 0 1-.895-1.376 4.518 4.518 0 0 1-.305-1.648c0-.597.102-1.157.304-1.68a4.02 4.02 0 0 1 .88-1.392 4.163 4.163 0 0 1 1.392-.96c.555-.235 1.174-.352 1.856-.352.683 0 1.291.117 1.825.352.544.235 1.002.55 1.376.944.383.395.671.853.864 1.376.202.523.303 1.067.303 1.632 0 .139-.005.272-.016.4 0 .128-.01.235-.031.32h-6.48c.031.33.111.624.24.88a2.161 2.161 0 0 0 1.184 1.072c.255.096.522.144.8.144.426 0 .826-.101 1.2-.304.384-.213.645-.49.784-.832l1.84.512c-.31.64-.806 1.168-1.489 1.584-.671.405-1.477.608-2.415.608zm2.175-5.056c-.053-.63-.288-1.13-.704-1.504-.405-.384-.9-.576-1.487-.576a2.1 2.1 0 0 0-.817.16 2.019 2.019 0 0 0-.655.416c-.192.181-.352.4-.48.656a2.417 2.417 0 0 0-.209.848h4.353zm12.382 5.056c-.661 0-1.237-.144-1.728-.432a3.194 3.194 0 0 1-1.152-1.2v4.88H97.46V26.616h1.872v1.44c.31-.49.71-.875 1.2-1.152.491-.288 1.056-.432 1.696-.432a3.52 3.52 0 0 1 1.568.352c.48.224.891.533 1.232.928.352.384.624.843.816 1.376.203.523.304 1.077.304 1.664 0 .608-.09 1.179-.272 1.712a4.284 4.284 0 0 1-.768 1.392 3.46 3.46 0 0 1-1.152.928 3.243 3.243 0 0 1-1.472.336zm-.72-1.824c.32 0 .614-.07.88-.208a2.12 2.12 0 0 0 .704-.56c.192-.235.342-.507.448-.816.107-.31.16-.63.16-.96 0-.352-.058-.677-.176-.976a2.342 2.342 0 0 0-.496-.8 2.158 2.158 0 0 0-.736-.528 2.148 2.148 0 0 0-.912-.192c-.202 0-.41.037-.624.112-.213.064-.41.16-.592.288a2.831 2.831 0 0 0-.496.448c-.138.17-.245.357-.32.56v1.968c.192.48.486.88.88 1.2.395.31.822.464 1.28.464zm9.709 1.824c-.683 0-1.296-.117-1.84-.352a4.283 4.283 0 0 1-1.392-.944 4.375 4.375 0 0 1-.864-1.392 4.512 4.512 0 0 1-.304-1.648c0-.587.101-1.141.304-1.664a4.19 4.19 0 0 1 .864-1.376 4.163 4.163 0 0 1 1.392-.96c.544-.235 1.157-.352 1.84-.352s1.291.117 1.824.352a3.99 3.99 0 0 1 1.376.96c.384.395.677.853.88 1.376.203.523.304 1.077.304 1.664 0 .576-.101 1.125-.304 1.648a4.375 4.375 0 0 1-.864 1.392 4.1 4.1 0 0 1-1.376.944c-.544.235-1.157.352-1.84.352zm-2.192-4.336c0 .373.053.715.16 1.024.117.299.272.56.464.784.203.224.437.4.704.528.267.117.555.176.864.176.309 0 .597-.059.864-.176a2.08 2.08 0 0 0 .688-.528c.203-.224.357-.49.464-.8.117-.31.176-.65.176-1.024 0-.363-.059-.699-.176-1.008a2.288 2.288 0 0 0-.464-.8 1.905 1.905 0 0 0-.688-.512 1.973 1.973 0 0 0-.864-.192c-.309 0-.597.064-.864.192a2.262 2.262 0 0 0-.704.528c-.192.224-.347.49-.464.8-.107.31-.16.645-.16 1.008zM125.096 35h-2.144v-4.704c0-.672-.117-1.163-.352-1.472-.235-.31-.56-.464-.976-.464-.213 0-.432.043-.656.128a2.428 2.428 0 0 0-.64.368c-.192.15-.368.33-.528.544-.16.213-.277.448-.352.704V35h-2.144v-8.384h1.936v1.552c.309-.533.757-.95 1.344-1.248.587-.299 1.248-.448 1.984-.448.523 0 .949.096 1.28.288.331.192.587.443.768.752.181.31.304.661.368 1.056.075.395.112.795.112 1.2V35zm5.736.16c-.682 0-1.296-.117-1.84-.352a4.283 4.283 0 0 1-1.392-.944 4.375 4.375 0 0 1-.864-1.392 4.532 4.532 0 0 1-.304-1.648c0-.587.102-1.141.304-1.664a4.19 4.19 0 0 1 .864-1.376 4.163 4.163 0 0 1 1.392-.96c.544-.235 1.158-.352 1.84-.352.683 0 1.291.117 1.824.352a3.99 3.99 0 0 1 1.376.96c.384.395.678.853.88 1.376.203.523.304 1.077.304 1.664 0 .576-.101 1.125-.304 1.648a4.34 4.34 0 0 1-.864 1.392 4.1 4.1 0 0 1-1.376.944c-.544.235-1.157.352-1.84.352zm-2.192-4.336c0 .373.054.715.16 1.024.118.299.272.56.464.784.203.224.438.4.704.528.267.117.555.176.864.176.31 0 .598-.059.864-.176a2.08 2.08 0 0 0 .688-.528c.203-.224.358-.49.464-.8.118-.31.176-.65.176-1.024 0-.363-.058-.699-.176-1.008a2.273 2.273 0 0 0-.464-.8 1.905 1.905 0 0 0-.688-.512 1.966 1.966 0 0 0-.864-.192c-.309 0-.597.064-.864.192a2.274 2.274 0 0 0-.704.528c-.192.224-.346.49-.464.8a3.09 3.09 0 0 0-.16 1.008zM138.623 35l-3.088-8.384h2.208l2.128 6.64 2.144-6.64h2.016L140.943 35h-2.32zm14.317 0h-2.144v-4.704c0-.672-.117-1.163-.352-1.472-.235-.31-.56-.464-.976-.464-.213 0-.432.043-.656.128a2.428 2.428 0 0 0-.64.368c-.192.15-.368.33-.528.544-.16.213-.277.448-.352.704V35h-2.144v-8.384h1.936v1.552c.309-.533.757-.95 1.344-1.248.587-.299 1.248-.448 1.984-.448.523 0 .949.096 1.28.288.331.192.587.443.768.752.181.31.304.661.368 1.056.075.395.112.795.112 1.2V35zm5.736.16c-.683 0-1.296-.117-1.84-.352a4.283 4.283 0 0 1-1.392-.944 4.375 4.375 0 0 1-.864-1.392 4.512 4.512 0 0 1-.304-1.648c0-.587.101-1.141.304-1.664a4.19 4.19 0 0 1 .864-1.376 4.163 4.163 0 0 1 1.392-.96c.544-.235 1.157-.352 1.84-.352s1.291.117 1.824.352a3.99 3.99 0 0 1 1.376.96c.384.395.677.853.88 1.376.203.523.304 1.077.304 1.664 0 .576-.101 1.125-.304 1.648a4.375 4.375 0 0 1-.864 1.392 4.1 4.1 0 0 1-1.376.944c-.544.235-1.157.352-1.84.352zm-2.192-4.336c0 .373.053.715.16 1.024.117.299.272.56.464.784.203.224.437.4.704.528.267.117.555.176.864.176.309 0 .597-.059.864-.176a2.08 2.08 0 0 0 .688-.528c.203-.224.357-.49.464-.8.117-.31.176-.65.176-1.024 0-.363-.059-.699-.176-1.008a2.288 2.288 0 0 0-.464-.8 1.905 1.905 0 0 0-.688-.512 1.973 1.973 0 0 0-.864-.192c-.309 0-.597.064-.864.192a2.262 2.262 0 0 0-.704.528c-.192.224-.347.49-.464.8-.107.31-.16.645-.16 1.008z"/>
</svg>
