<svg xmlns="http://www.w3.org/2000/svg" width="180" height="60" fill="none" viewBox="0 0 180 60">
    <path fill="#D9452D" d="M0 10h180v40H0z"/>
    <path fill="#D9452D" d="M180 10H0l6.814 39.898L164.463 60 180 10z" opacity=".4"/>
    <path fill="#D9452D" d="M12.07 0L170.59 8 180 50H0L12.07 0z" opacity=".4"/>
    <path fill="#fff" d="M66.684 35V23.64H71.5c.523 0 1.003.112 1.44.336.448.213.832.501 1.152.864.32.352.57.757.752 1.216.181.448.272.901.272 1.36 0 .48-.085.95-.256 1.408-.17.448-.41.848-.72 1.2s-.683.635-1.12.848a3.24 3.24 0 0 1-1.44.32h-2.688V35h-2.208zm2.208-5.744h2.56c.405 0 .741-.165 1.008-.496.277-.33.416-.779.416-1.344 0-.288-.043-.544-.128-.768a1.866 1.866 0 0 0-.336-.592 1.247 1.247 0 0 0-.496-.352 1.302 1.302 0 0 0-.56-.128h-2.464v3.68zm11.284 5.904c-.683 0-1.296-.117-1.84-.352a4.283 4.283 0 0 1-1.392-.944 4.364 4.364 0 0 1-.864-1.392 4.52 4.52 0 0 1-.304-1.648c0-.587.102-1.141.304-1.664a4.18 4.18 0 0 1 .864-1.376 4.163 4.163 0 0 1 1.392-.96c.544-.235 1.157-.352 1.84-.352s1.29.117 1.824.352a3.993 3.993 0 0 1 1.376.96c.384.395.677.853.88 1.376.203.523.304 1.077.304 1.664 0 .576-.101 1.125-.304 1.648a4.36 4.36 0 0 1-.864 1.392c-.373.395-.832.71-1.376.944-.544.235-1.157.352-1.84.352zm-2.192-4.336c0 .373.053.715.16 1.024.117.299.272.56.464.784.203.224.438.4.704.528.267.117.555.176.864.176.31 0 .597-.059.864-.176.267-.128.496-.304.688-.528.203-.224.358-.49.464-.8.118-.31.176-.65.176-1.024 0-.363-.058-.699-.176-1.008a2.287 2.287 0 0 0-.464-.8 1.907 1.907 0 0 0-.688-.512 1.97 1.97 0 0 0-.864-.192c-.31 0-.597.064-.864.192a2.263 2.263 0 0 0-.704.528c-.192.224-.347.49-.464.8-.107.31-.16.645-.16 1.008zm9.623-7.504l1.36 1.008 1.36-1.008 1.104.512-1.696 1.616h-1.552l-1.696-1.616 1.12-.512zm1.568 11.84a6.486 6.486 0 0 1-2.064-.336 5.034 5.034 0 0 1-1.728-.96l.8-1.344c.512.363 1.008.64 1.488.832.49.181.976.272 1.456.272.427 0 .763-.08 1.008-.24a.773.773 0 0 0 .368-.688c0-.299-.144-.517-.432-.656-.288-.139-.757-.299-1.408-.48a18.869 18.869 0 0 1-1.392-.432 3.75 3.75 0 0 1-.928-.464 1.698 1.698 0 0 1-.512-.608 1.996 1.996 0 0 1-.16-.832c0-.427.08-.81.24-1.152.17-.341.406-.63.704-.864a3.151 3.151 0 0 1 1.04-.56 4.334 4.334 0 0 1 1.312-.192c.63 0 1.216.09 1.76.272a4.295 4.295 0 0 1 1.52.88l-.864 1.296a4.965 4.965 0 0 0-1.248-.704 3.326 3.326 0 0 0-1.184-.224c-.362 0-.666.075-.912.224-.245.15-.368.39-.368.72 0 .15.027.272.08.368.064.096.16.181.288.256.128.075.294.15.496.224.214.064.475.133.784.208.576.15 1.067.299 1.472.448.416.15.752.32 1.008.512.267.192.459.416.576.672.128.245.192.544.192.896 0 .821-.304 1.472-.912 1.952-.608.47-1.434.704-2.48.704zm7.073 0c-.405 0-.784-.064-1.136-.192a2.915 2.915 0 0 1-.912-.56 2.811 2.811 0 0 1-.608-.848 2.627 2.627 0 0 1-.208-1.056c0-.395.086-.757.256-1.088.182-.341.427-.63.736-.864.32-.235.699-.416 1.136-.544a4.743 4.743 0 0 1 1.44-.208c.374 0 .736.032 1.088.096.363.064.683.155.96.272v-.48c0-.555-.16-.981-.48-1.28-.309-.299-.773-.448-1.392-.448-.448 0-.885.08-1.312.24-.426.16-.864.395-1.312.704l-.656-1.36c1.078-.715 2.24-1.072 3.488-1.072 1.206 0 2.139.299 2.8.896.672.587 1.008 1.44 1.008 2.56v2.608c0 .224.038.384.112.48.086.096.219.15.4.16V35a4.763 4.763 0 0 1-.944.112c-.405 0-.72-.09-.944-.272a1.184 1.184 0 0 1-.4-.72l-.048-.464c-.373.49-.826.864-1.36 1.12a3.906 3.906 0 0 1-1.712.384zm.608-1.568c.363 0 .704-.064 1.024-.192.331-.128.587-.299.768-.512.235-.181.352-.384.352-.608v-.96a4.738 4.738 0 0 0-.832-.224 4.122 4.122 0 0 0-.864-.096c-.554 0-1.008.128-1.36.384-.352.245-.528.56-.528.944 0 .363.139.667.416.912.278.235.619.352 1.024.352zm6.276-10.272h2.144v8.992c0 .31.075.55.224.72.149.17.363.256.64.256.128 0 .267-.021.416-.064.16-.043.309-.096.448-.16l.288 1.632a4.146 4.146 0 0 1-1.008.32 5.5 5.5 0 0 1-1.04.112c-.672 0-1.195-.176-1.568-.528-.363-.363-.544-.875-.544-1.536V23.32zm4.406 14.816c-.405 0-.789-.064-1.152-.192a2.707 2.707 0 0 1-.976-.56l.928-1.456c.117.117.261.203.432.256.171.064.341.096.512.096a.985.985 0 0 0 .72-.304c.203-.192.304-.443.304-.752v-8.608h2.144v8.448c0 .448-.075.859-.224 1.232a2.78 2.78 0 0 1-.624.976 2.58 2.58 0 0 1-.928.64 2.88 2.88 0 0 1-1.136.224zm.768-12.688V23.32h2.144v2.128h-2.144zM112.398 35v-8.384h2.144V35h-2.144zm0-9.552V23.32h2.144v2.128h-2.144z"/>
</svg>
