<svg xmlns="http://www.w3.org/2000/svg" width="180" height="60" fill="none" viewBox="0 0 180 60">
    <path fill="#D9452D" d="M0 10h180v40H0z"/>
    <path fill="#D9452D" d="M180 10H0l6.814 39.898L164.463 60 180 10z" opacity=".4"/>
    <path fill="#D9452D" d="M12.07 0L170.59 8 180 50H0L12.07 0z" opacity=".4"/>
    <path fill="#fff" d="M85.134 35.08c-.832 0-1.59-.16-2.272-.48a5.861 5.861 0 0 1-1.744-1.296 6.077 6.077 0 0 1-1.12-1.856 5.88 5.88 0 0 1 .016-4.304 6.211 6.211 0 0 1 1.168-1.84 5.56 5.56 0 0 1 1.776-1.264 5.174 5.174 0 0 1 2.224-.48c.82 0 1.568.17 2.24.512.682.33 1.264.768 1.744 1.312s.853 1.163 1.12 1.856a5.841 5.841 0 0 1-.016 4.288 6.015 6.015 0 0 1-1.152 1.824 5.71 5.71 0 0 1-1.76 1.264 5.325 5.325 0 0 1-2.224.464zm-3.296-5.76c0 .49.074.965.224 1.424.149.459.362.864.64 1.216.288.352.634.635 1.04.848.416.213.885.32 1.408.32.533 0 1.002-.107 1.408-.32a3.202 3.202 0 0 0 1.04-.88c.288-.363.5-.768.64-1.216.149-.459.224-.923.224-1.392 0-.49-.08-.965-.24-1.424a3.717 3.717 0 0 0-.656-1.216 2.948 2.948 0 0 0-1.04-.832 2.91 2.91 0 0 0-1.376-.32c-.534 0-1.008.112-1.424.336a3.032 3.032 0 0 0-1.04.864 3.89 3.89 0 0 0-.64 1.216 4.627 4.627 0 0 0-.208 1.376zM92.379 35V23.656h2.208v5.392l4.768-5.408h2.432l-4.352 5.04L102.06 35h-2.48l-3.536-4.912-1.456 1.52V35H92.38z"/>
</svg>
