<svg xmlns="http://www.w3.org/2000/svg" width="130" height="130" fill="none" viewBox="0 0 130 130">
    <path stroke="#D9452D" stroke-width="2" d="M65 1C29.711 1 1 29.711 1 65s28.711 64 64 64 64-28.711 64-64S100.289 1 65 1"/>
    <path fill="#4A251F" fill-rule="evenodd" d="M74.525 119.665c-35.013 0-63.5-28.486-63.5-63.5 0-16.056 6.002-30.728 15.865-41.922C11.483 25.84 1.5 44.275 1.5 65c0 35.013 28.487 63.5 63.5 63.5 18.957 0 35.99-8.361 47.635-21.578-10.623 7.996-23.822 12.743-38.11 12.743z" clip-rule="evenodd"/>
    <path fill="#D9452D" fill-rule="evenodd" d="M98.416 38.6s-2.524-1.767-4.668-3.858c-1.687-1.723-3.515-4.217-3.515-4.217S73.002 48.49 65.562 55.988c-9.197-9.659-24.43-25.947-24.43-25.947s-2.33 3.677-3.657 5.108c-1.832 1.975-4.258 3.746-4.474 3.81.221.222 14.866 14.958 24.606 24.735C47.875 72.947 32.5 87.326 32.5 87.326s3.678 2.329 5.108 3.657c1.975 1.832 3.745 4.259 3.81 4.474.216-.215 14.267-14.179 24.031-23.906l24.41 24.406s1.767-2.523 3.857-4.668c1.723-1.686 4.218-3.514 4.218-3.514s-16.87-16.18-24.738-23.952c7.265-7.264 25.22-25.223 25.22-25.223z" clip-rule="evenodd"/>
</svg>
