<svg xmlns="http://www.w3.org/2000/svg" width="94" height="133" fill="none" viewBox="0 0 94 133">
    <path fill="#fff" d="M15.076 68.55L0 15.971l10.089-2.893 15.076 52.577-10.089 2.893zM32.636 133L17.56 80.423l20.907-5.995 2.913 10.16-10.27 2.945 2.93 10.222 9.846-2.823 2.843 9.916-9.846 2.823 3.458 12.058 10.94-3.137 2.93 10.221L32.637 133zM63.389 124.182L42.72 73.208l10.21-2.928 12.43 32.338-6.595-34.01 9.724-2.79 12.308 32.374-6.717-33.976 10.332-2.963 9.363 54.215-12.52 3.59-9.879-24.59 4.775 26.054-12.763 3.66z"/>
    <path fill="#D9452D" d="M50.265 12.958c.68-5.774 4.579-10.79 10.315-12.435 7.726-2.215 15.2 2.849 18.175 10.585 0 0 .943 1.862 1.129 5.647.253 5.155-1.177 10.21-3.824 14.514L61.97 53.778 38.413 42.063c-4.526-2.246-8.417-5.776-10.934-10.282-1.848-3.309-2.035-5.387-2.035-5.387C23.868 18.256 27.522 10 35.249 7.786c5.736-1.645 11.38.636 15.016 5.172z"/>
</svg>
