<svg xmlns="http://www.w3.org/2000/svg" width="130" height="130" fill="none" viewBox="0 0 130 130">
    <path stroke="#fff" stroke-width="2" d="M65 1C29.711 1 1 29.711 1 65s28.711 64 64 64 64-28.711 64-64S100.289 1 65 1"/>
    <path fill="#fff" fill-rule="evenodd" d="M110 40.767s-2.525-1.767-4.67-3.857c-1.686-1.723-3.514-4.218-3.514-4.218S82.611 52.716 75.994 59.31C70.484 64.803 53.43 81.034 53.43 81.034s-8.667-8.34-11.457-11.132c-5.94-5.94-13.819-14.144-13.819-14.144s-1.05 1.655-4.013 4.62C21.475 63.041 20 63.908 20 63.908s11.184 10.586 15.223 14.615c4.327 4.316 18.178 18.784 18.178 18.784l.028-.03.03.03 30.408-30.405L110 40.767z" clip-rule="evenodd"/>
    <path fill="#464646" fill-rule="evenodd" d="M74.525 119.665c-35.013 0-63.5-28.486-63.5-63.5 0-16.056 6.002-30.728 15.865-41.922C11.483 25.84 1.5 44.275 1.5 65c0 35.013 28.487 63.5 63.5 63.5 18.957 0 35.99-8.361 47.635-21.578-10.623 7.996-23.822 12.743-38.11 12.743z" clip-rule="evenodd"/>
</svg>
