<svg xmlns="http://www.w3.org/2000/svg" width="91" height="75" fill="none" viewBox="0 0 91 75">
    <path fill="#fff" fill-rule="evenodd" d="M62.271 68.028h-7.449c-.83 0-1.502-.674-1.502-1.505 0-.831.672-1.505 1.502-1.505h7.449c.03 0 .067-.003.115-.008l.173-.01h6.473c5.124-.382 9.899-2.733 13.459-6.645 3.557-3.894 5.505-8.898 5.505-14.115-.017-9.386-6.451-17.806-15.309-20.129a1.504 1.504 0 0 1-1.1-1.204c-.887-5.248-3.498-10.02-7.474-13.64a23.98 23.98 0 0 0-16.18-6.257A23.993 23.993 0 0 0 34.92 6.825a23.808 23.808 0 0 0-7.779 8.15c-.318.553-.95.845-1.576.729a13.17 13.17 0 0 0-2.403-.227c-6.863 0-12.45 5.561-12.45 12.385 0 .844.09 1.697.263 2.596a1.506 1.506 0 0 1-.595 1.506c-4.613 3.34-7.376 8.701-7.376 14.364 0 4.621 1.729 9.112 4.885 12.672 3.24 3.644 7.487 5.773 11.907 6.018h21.877c.83 0 1.502.674 1.502 1.505 0 .831-.672 1.505-1.502 1.505H19.94l-.227-.002C14.396 67.734 9.408 65.233 5.644 61 2.003 56.89 0 51.69 0 46.328c0-6.32 2.93-12.306 7.869-16.233a15.951 15.951 0 0 1-.16-2.233c0-8.49 6.935-15.395 15.453-15.395.633 0 1.273.04 1.91.117a26.851 26.851 0 0 1 8.224-8.291A26.992 26.992 0 0 1 47.934 0a26.98 26.98 0 0 1 18.2 7.039c4.234 3.855 7.097 8.882 8.238 14.424 9.7 2.994 16.61 12.353 16.628 22.775 0 5.973-2.23 11.7-6.291 16.147-4.086 4.49-9.598 7.196-15.515 7.621l-.107.004h-6.45a3.856 3.856 0 0 1-.366.018zm-12.606-33.93L61.761 46.14a1.5 1.5 0 0 0 2.124-.007 1.507 1.507 0 0 0-.006-2.128L50.94 31.124a2.43 2.43 0 0 1-.033-.033l-.125-.129c-.101-.104-.221-.227-.277-.282-.786-.785-1.42-1.207-2.343-1.207-.937 0-1.591.438-2.383 1.239-.108.109-.414.431-.416.433l-12.917 12.86a1.507 1.507 0 0 0-.007 2.128 1.5 1.5 0 0 0 2.125.007L46.66 34.097v39.398c0 .831.672 1.505 1.502 1.505s1.502-.674 1.502-1.505V34.097z" clip-rule="evenodd" opacity=".3"/>
</svg>
